<?xml version="1.0" standalone="no"?>
<!DOCTYPE svg PUBLIC "-//W3C//DTD SVG 20010904//EN"
 "http://www.w3.org/TR/2001/REC-SVG-20010904/DTD/svg10.dtd">
<svg version="1.0" xmlns="http://www.w3.org/2000/svg"
 width="512.000000pt" height="512.000000pt" viewBox="0 0 512.000000 512.000000"
 preserveAspectRatio="xMidYMid meet">
<metadata>
Created by potrace 1.16, written by Peter Selinger 2001-2019
</metadata>
<g transform="translate(0.000000,512.000000) scale(0.100000,-0.100000)"
fill="#000000" stroke="none">
<path d="M0 4540 l0 -580 517 0 518 0 77 -77 77 -77 -117 -61 c-208 -108 -351
-214 -518 -386 -275 -284 -448 -618 -526 -1019 -29 -151 -36 -473 -14 -630 95
-655 501 -1217 1090 -1508 285 -140 552 -202 875 -202 322 0 592 61 871 197
114 56 309 181 385 247 l40 34 145 -142 c81 -79 163 -150 185 -161 183 -86
397 69 371 268 -11 82 -41 125 -197 282 l-148 150 36 55 c63 98 163 312 202
436 64 198 101 430 101 632 l0 72 -950 0 -950 0 0 952 0 951 -142 -7 c-79 -3
-153 -9 -165 -12 l-23 -6 0 586 0 586 -870 0 -870 0 0 -580z m1560 -222 l0
-633 -223 223 -222 222 -473 0 -472 0 0 410 0 410 695 0 695 0 0 -632z m330
-1478 l0 -950 950 0 950 0 0 -27 c-1 -51 -29 -232 -49 -310 -27 -103 -71 -231
-111 -318 -36 -80 -119 -225 -128 -225 -4 0 -32 25 -64 57 l-57 56 6 81 c10
146 -39 278 -142 382 -105 106 -207 149 -355 149 -148 0 -250 -43 -355 -150
-195 -198 -191 -506 9 -705 97 -97 231 -146 378 -137 l86 4 71 -71 72 -72 -58
-46 c-442 -347 -1017 -468 -1562 -328 -562 143 -1037 570 -1242 1116 -82 218
-113 399 -113 644 0 294 50 507 179 777 182 380 514 702 895 868 l75 33 208
-206 207 -207 0 262 0 262 48 4 c26 2 59 4 75 5 l27 2 0 -950z m1113 -1300
c172 -64 256 -263 182 -429 -93 -207 -354 -259 -518 -102 -91 85 -122 226 -76
346 61 162 249 246 412 185z m797 -1124 c0 -50 -36 -86 -86 -86 -35 0 -51 13
-286 247 l-248 247 63 63 62 63 248 -248 c234 -235 247 -251 247 -286z"/>
<path d="M330 4705 l0 -85 540 0 540 0 0 85 0 85 -540 0 -540 0 0 -85z"/>
<path d="M330 4375 l0 -85 540 0 540 0 0 85 0 85 -540 0 -540 0 0 -85z"/>
<path d="M640 2789 c-63 -28 -107 -74 -130 -136 -25 -68 -25 -118 0 -186 75
-199 362 -213 456 -21 66 135 7 292 -131 350 -50 20 -141 18 -195 -7z m130
-159 c18 0 50 -45 50 -69 -1 -56 -61 -92 -110 -66 -52 27 -53 102 -2 129 15 9
33 13 40 11 8 -3 18 -5 22 -5z"/>
<path d="M985 2270 l-350 -350 63 -62 62 -63 355 355 355 355 -57 57 c-32 32
-62 58 -68 58 -5 0 -168 -157 -360 -350z"/>
<path d="M1289 2122 c-182 -95 -182 -352 0 -444 169 -86 362 30 364 217 2 193
-195 316 -364 227z m169 -175 c27 -25 29 -66 2 -94 -28 -31 -55 -36 -89 -18
-55 28 -54 106 1 130 36 15 53 11 86 -18z"/>
<path d="M1400 1240 l0 -90 85 0 85 0 0 90 0 90 -85 0 -85 0 0 -90z"/>
<path d="M1730 1240 l0 -90 85 0 85 0 0 90 0 90 -85 0 -85 0 0 -90z"/>
<path d="M2060 1240 l0 -90 85 0 85 0 0 90 0 90 -85 0 -85 0 0 -90z"/>
<path d="M2800 1240 l0 -90 90 0 90 0 0 90 0 90 -90 0 -90 0 0 -90z"/>
<path d="M4450 3715 l0 -915 335 0 335 0 0 915 0 915 -335 0 -335 0 0 -915z
m500 0 l0 -735 -160 0 -160 0 0 735 0 735 160 0 160 0 0 -735z"/>
<path d="M2222 3263 l3 -1038 1039 -3 1039 -2 -6 147 c-5 125 -30 316 -53 408
-6 23 -3 25 25 25 l31 0 0 750 0 750 -335 0 -335 0 0 -251 0 -251 -37 33 c-21
19 -57 48 -80 64 -28 20 -43 38 -43 53 0 18 -6 22 -31 22 -19 0 -65 20 -123
55 -289 173 -668 275 -1019 275 l-77 0 2 -1037z m448 821 c120 -25 234 -59
311 -93 l44 -20 -112 0 -113 -1 0 -585 0 -585 335 0 335 0 2 449 3 450 78 -71
77 -70 0 -379 0 -379 213 0 214 0 22 -97 c23 -107 40 -220 41 -270 l0 -33
-860 0 -860 0 0 861 0 861 78 -7 c42 -4 129 -18 192 -31z m1450 -534 l0 -570
-160 0 -160 0 0 570 0 570 160 0 160 0 0 -570z m-820 -165 l0 -405 -160 0
-160 0 0 405 0 405 160 0 160 0 0 -405z"/>
</g>
</svg>
